<svg width="787" height="155" viewBox="0 0 787 155" fill="none" xmlns="http://www.w3.org/2000/svg">
<path d="M233.445 0V0C248.854 0 261.345 12.4915 261.345 27.9006V98.6385V98.6385C245.936 98.6385 233.445 86.147 233.445 70.7379V0Z" fill="#0B3953"/>
<path d="M375.043 0V77.3388C375.043 89.1023 365.506 98.6385 353.743 98.6385V98.6385C352.686 98.6385 351.684 98.1673 351.009 97.3532L308.532 46.0782V71.3015C308.532 86.3993 296.293 98.6385 281.195 98.6385V98.6385V21.2997C281.195 9.53619 290.731 0 302.495 0V0C303.552 0 304.554 0.471164 305.229 1.28526L347.706 52.5602V27.3369C347.706 12.2392 359.945 0 375.043 0V0Z" fill="#0B3953"/>
<path d="M456.726 22.1232H448.554C436.335 22.1232 426.43 12.2183 426.43 0V0H492.659C504.877 0 514.782 9.9049 514.782 22.1232V22.1232H484.627V98.6385V98.6385C469.218 98.6385 456.726 86.1469 456.726 70.7378V22.1232Z" fill="#0B3953"/>
<path d="M525.177 27.9006C525.177 12.4915 537.668 0 553.077 0V0V70.7379C553.077 86.1469 540.586 98.6385 525.177 98.6385V98.6385V27.9006Z" fill="#0B3953"/>
<path d="M687.63 98.6385C673.443 98.6385 661.922 87.1788 661.845 72.9929L661.702 46.3601L636.338 88.9155H623.937L598.714 47.7692V98.6385V98.6385C584.472 98.6385 572.927 87.0933 572.927 72.8516V0V0C587.191 0 600.423 7.43504 607.841 19.6179L630.56 56.9285L664.379 0V0C677.075 0 687.377 10.2728 687.413 22.9686L687.63 98.6385V98.6385Z" fill="#0B3953"/>
<path d="M786.564 77.0789V77.0789C786.564 88.9859 776.912 98.6385 765.005 98.6385H707.372V30C707.372 13.4315 720.803 0 737.372 0H784.732V0C784.732 11.907 775.08 21.5595 763.173 21.5595H734.99V38.1872H778.814V38.1872C778.814 49.7051 769.477 59.0422 757.959 59.0422H734.99V77.0789H786.564Z" fill="#0B3953"/>
<path d="M270.905 118.084L263.803 153.594H259.643L243.765 126.252L238.337 153.594H233.264L240.366 118.084H244.526L260.404 145.427L265.832 118.084H270.905Z" fill="#C81D25"/>
<path d="M291.527 154C288.044 154 285.051 153.374 282.548 152.123C280.046 150.872 278.135 149.13 276.816 146.898C275.497 144.632 274.837 142.011 274.837 139.035C274.837 135.078 275.734 131.477 277.526 128.23C279.318 124.983 281.838 122.413 285.085 120.519C288.365 118.625 292.136 117.678 296.397 117.678C299.88 117.678 302.873 118.304 305.376 119.555C307.912 120.807 309.84 122.565 311.159 124.831C312.478 127.063 313.137 129.667 313.137 132.643C313.137 136.6 312.241 140.202 310.449 143.448C308.656 146.695 306.12 149.265 302.84 151.159C299.559 153.053 295.788 154 291.527 154ZM291.984 149.485C295.163 149.485 297.97 148.741 300.405 147.253C302.84 145.765 304.716 143.77 306.035 141.267C307.354 138.731 308.014 135.958 308.014 132.948C308.014 129.667 306.965 127.063 304.869 125.136C302.806 123.174 299.847 122.193 295.991 122.193C292.812 122.193 290.005 122.937 287.57 124.425C285.135 125.913 283.241 127.926 281.889 130.462C280.57 132.998 279.91 135.755 279.91 138.731C279.91 142.011 280.959 144.632 283.055 146.594C285.152 148.521 288.128 149.485 291.984 149.485Z" fill="#C81D25"/>
<path d="M329.78 122.498H317.656L318.519 118.084H347.89L346.977 122.498H334.853L328.613 153.594H323.591L329.78 122.498Z" fill="#C81D25"/>
<path d="M353.415 118.084H358.488L351.386 153.594H346.313L353.415 118.084ZM360.264 108.598H366.605L357.372 115.193H352.604L360.264 108.598Z" fill="#C81D25"/>
<path d="M379.366 154C375.849 154 372.822 153.374 370.286 152.123C367.75 150.872 365.805 149.13 364.452 146.898C363.1 144.632 362.423 142.011 362.423 139.035C362.423 135.078 363.319 131.477 365.112 128.23C366.904 124.983 369.441 122.413 372.721 120.519C376.035 118.625 379.857 117.678 384.186 117.678C387.128 117.678 389.732 118.169 391.998 119.15C394.264 120.097 396.005 121.449 397.223 123.208L393.57 126.353C391.44 123.58 388.193 122.193 383.83 122.193C380.55 122.193 377.675 122.937 375.207 124.425C372.738 125.913 370.827 127.926 369.474 130.462C368.155 132.965 367.496 135.721 367.496 138.731C367.496 142.011 368.544 144.632 370.641 146.594C372.772 148.521 375.799 149.485 379.721 149.485C384.084 149.485 387.669 148.082 390.476 145.275L393.418 148.623C391.795 150.381 389.766 151.717 387.331 152.63C384.93 153.543 382.275 154 379.366 154Z" fill="#C81D25"/>
<path d="M405.778 118.084H410.851L403.749 153.594H398.676L405.778 118.084Z" fill="#C81D25"/>
<path d="M439.085 144.717H420.113L414.482 153.594H409.003L432.237 118.084H437.259L446.238 153.594H441.216L439.085 144.717ZM438.071 140.658L433.86 123.157L422.7 140.658H438.071Z" fill="#C81D25"/>
<path d="M462.492 154C459.854 154 457.301 153.594 454.832 152.782C452.397 151.971 450.52 150.939 449.201 149.688L451.434 145.63C452.786 146.881 454.494 147.879 456.557 148.623C458.62 149.333 460.751 149.688 462.949 149.688C465.857 149.688 468.174 149.164 469.899 148.115C471.657 147.033 472.537 145.545 472.537 143.651C472.537 142.637 472.198 141.791 471.522 141.115C470.846 140.439 470.017 139.897 469.036 139.492C468.056 139.086 466.669 138.612 464.877 138.071C462.611 137.395 460.784 136.752 459.398 136.144C458.011 135.535 456.811 134.639 455.796 133.455C454.815 132.237 454.325 130.648 454.325 128.687C454.325 126.454 454.951 124.51 456.202 122.853C457.453 121.196 459.195 119.927 461.427 119.048C463.659 118.135 466.212 117.678 469.087 117.678C471.285 117.678 473.365 117.949 475.327 118.49C477.322 118.997 479.047 119.724 480.501 120.671L478.472 124.831C477.153 123.884 475.665 123.174 474.008 122.701C472.384 122.227 470.66 121.99 468.833 121.99C465.925 121.99 463.608 122.565 461.884 123.715C460.159 124.831 459.296 126.336 459.296 128.23C459.296 129.278 459.635 130.158 460.311 130.868C461.021 131.578 461.884 132.136 462.898 132.542C463.947 132.948 465.367 133.421 467.159 133.962C469.391 134.639 471.184 135.281 472.537 135.89C473.923 136.465 475.09 137.327 476.037 138.477C477.018 139.627 477.508 141.115 477.508 142.941C477.508 145.207 476.865 147.169 475.58 148.826C474.329 150.483 472.57 151.768 470.304 152.681C468.039 153.56 465.435 154 462.492 154Z" fill="#C81D25"/>
<path d="M14.2682 80.8099C11.0149 77.714 5.8862 77.7776 2.71064 80.9532L2.42405 81.2398C-0.864813 84.5286 -0.798466 89.881 2.5709 93.0874C5.8242 96.1833 10.9529 96.1197 14.1284 92.9441L14.415 92.6575C17.7039 89.3687 17.6375 84.0163 14.2682 80.8099Z" fill="#C81D25"/>
<path d="M61.453 151.807C64.7652 155.119 70.1353 155.119 73.4475 151.807L184.972 56.2459C190.696 63.6954 195.529 71.4865 199.658 79.8436C202.148 84.883 208.068 87.367 213.26 85.2138V85.2138C208.217 73.0531 201.694 61.6614 193.915 51.2636C193.1 50.175 192.258 49.111 191.393 48.0623C188.918 45.0636 183.371 38.4571 179.066 34.1942C173.913 29.092 165.336 22.1918 163.982 21.1088C163.856 21.0083 163.736 20.9143 163.608 20.8165C155.475 14.5841 146.618 8.9126 137.297 4.23775C132.273 1.71772 126.301 4.20916 124.148 9.40141V9.40141C136.112 14.3629 147.184 20.7658 157.318 28.554L67.4502 133.815L34.0995 100.465C27.7862 94.1512 17.5503 94.1512 11.237 100.465C10.9259 100.776 10.9259 101.28 11.237 101.591L61.453 151.807Z" fill="#C81D25"/>
</svg>
