<svg width="534" height="534" viewBox="0 0 534 534" fill="none" xmlns="http://www.w3.org/2000/svg">
<path fill-rule="evenodd" clip-rule="evenodd" d="M267 509C400.653 509 509 400.653 509 267C509 133.347 400.653 25 267 25C133.347 25 25 133.347 25 267C25 400.653 133.347 509 267 509ZM267 534C414.46 534 534 414.46 534 267C534 119.54 414.46 0 267 0C119.54 0 0 119.54 0 267C0 414.46 119.54 534 267 534Z" fill="#0B3953"/>
<path d="M188.12 171.703C183.325 167.14 175.766 167.234 171.086 171.914L170.664 172.336C165.817 177.183 165.914 185.072 170.88 189.797C175.675 194.36 183.234 194.266 187.914 189.586L188.336 189.164C193.183 184.317 193.086 176.428 188.12 171.703Z" fill="#C81D25"/>
<path fill-rule="evenodd" clip-rule="evenodd" d="M497.039 297.301L482.165 295.361C483.375 286.086 484 276.62 484 267C484 257.38 483.375 247.914 482.165 238.639L497.039 236.699C498.333 246.616 499 256.73 499 267C499 277.27 498.333 287.384 497.039 297.301ZM297.301 36.9609L295.361 51.8349C286.086 50.625 276.62 50 267 50C257.38 50 247.914 50.625 238.639 51.8349L236.699 36.9609C246.616 35.6673 256.73 35 267 35C277.27 35 287.384 35.6673 297.301 36.9609ZM178.193 52.6043L183.939 66.4602C166.306 73.7725 149.839 83.3467 134.902 94.8251L125.762 82.9313C141.726 70.6634 159.332 60.4256 178.193 52.6043ZM82.9313 125.762L94.8251 134.902C83.3467 149.839 73.7725 166.306 66.4602 183.939L52.6043 178.193C60.4256 159.332 70.6634 141.726 82.9313 125.762ZM36.9609 236.699C35.6673 246.616 35 256.73 35 267C35 277.27 35.6673 287.384 36.9609 297.301L51.8349 295.361C50.625 286.086 50 276.62 50 267C50 257.38 50.625 247.914 51.8349 238.639L36.9609 236.699ZM52.6043 355.807L66.4602 350.061C73.7725 367.694 83.3467 384.161 94.8251 399.098L82.9313 408.238C70.6634 392.274 60.4256 374.668 52.6043 355.807ZM125.762 451.069L134.902 439.175C149.839 450.653 166.306 460.228 183.939 467.54L178.193 481.396C159.332 473.574 141.726 463.337 125.762 451.069ZM236.699 497.039L238.639 482.165C247.914 483.375 257.38 484 267 484C276.62 484 286.086 483.375 295.361 482.165L297.301 497.039C287.384 498.333 277.27 499 267 499C256.73 499 246.616 498.333 236.699 497.039ZM355.807 481.396L350.061 467.54C367.694 460.228 384.161 450.653 399.098 439.175L408.238 451.069C392.274 463.337 374.668 473.574 355.807 481.396ZM451.069 408.238C463.337 392.274 473.574 374.668 481.396 355.807L467.54 350.061C460.228 367.694 450.653 384.161 439.175 399.098L451.069 408.238Z" fill="#C81D25"/>
<path d="M257.661 276.339C262.543 281.22 270.457 281.22 275.339 276.339L439.704 135.5C451.182 150.437 460.228 166.306 467.54 183.939L481.396 178.193C473.574 159.332 463.337 141.726 451.069 125.762C451.069 125.762 439.421 111.339 431 103C422.738 94.8184 408.5 83.5 408.5 83.5C392.536 71.232 374.668 60.4256 355.807 52.6043L350.061 66.4602C367.694 73.7725 384.012 83.2091 398.949 94.6875L266.5 249.822L217.347 200.67C208.043 191.365 192.957 191.365 183.652 200.67C183.194 201.128 183.194 201.872 183.652 202.33L257.661 276.339Z" fill="#C81D25"/>
</svg>
